<?xml version="1.0" encoding="UTF-8" standalone="no"?>
<svg xmlns="http://www.w3.org/2000/svg" xml:space="preserve" width="398.97101" height="73.885002" viewBox="0 0 398.971 73.884998">
  <path fill="#00205b" d="M183.899 25.24c0-13.482-8.845-23.729-27.073-23.729h-36.672v70.863h17.258V16.826h19.522c7.227 0 9.814 4.1 9.814 8.845 0 4.854-2.696 8.845-9.923 8.845h-16.718l23.729 37.858h19.631s-16.18-25.455-16.071-25.455c10.032-2.372 16.503-9.383 16.503-21.679M91.248 1.511h17.257999v70.863998H91.248zM47.134 45.625H32.611l10.747-21.787h.217l24.16 48.536h19.846L51.448 1.511H36.133L0 72.374h19.414l5.853-11.864H54.36zm199.758-10.03c5.502-3.021 8.414-7.874 8.414-14.993 0-11.433-8.521-19.091-22.866-19.091h-40.342v70.863h41.96c14.668 0 24.268-7.874 24.268-19.846-.001-8.304-4.638-14.56-11.434-16.933m-37.534-19.092h23.082c3.452 0 6.148 2.696 6.148 6.256s-2.696 6.256-6.257 6.256h-22.974V16.503zm23.512 40.986h-23.513V43.036h23.513c4.207 0 7.443 3.021 7.443 7.119.001 4.206-3.236 7.334-7.443 7.334m79.924-16.394c0 10.756-4.962 16.718-14.776 16.718-9.707 0-14.669-5.962-14.669-16.718V1.511h-17.688v38.29c0 21.896 11.541 34.084 32.357 34.084s32.465-12.188 32.465-34.084V1.511h-17.689Zm63.744-11.433c-16.383-3.989-19.953-4.37-19.953-9.061 0-3.629 4.098-5.393 11.001-5.393 9.168 0 18.931 2.3 24.484 5.717l5.501-14.453C390.453 2.697 379.99 0 367.802 0c-18.229 0-28.476 9.061-28.476 21.248 0 13.114 7.654 18.442 25.239 22.219 13.69 3.018 16.609 4.901 16.609 8.736 0 4.166-3.774 6.041-11.216 6.041-10.786 0-20.548-2.62-28.367-6.903l-5.285 15.1c8.521 4.53 21.248 7.443 34.083 7.443 17.905 0 28.582-8.306 28.582-22.22.002-11.163-7.22-18.334-22.433-22.002"/>
</svg>