<?xml version="1.0" encoding="UTF-8" standalone="no"?>
<!-- Created with Inkscape (http://www.inkscape.org/) -->

<svg
   width="207.43343mm"
   height="32.16296mm"
   viewBox="0 0 207.43343 32.16296"
   version="1.1"
   id="svg1"
   xml:space="preserve"
   inkscape:version="1.4 (86a8ad7, 2024-10-11)"
   sodipodi:docname="hitachi 2025.svg"
   xmlns:inkscape="http://www.inkscape.org/namespaces/inkscape"
   xmlns:sodipodi="http://sodipodi.sourceforge.net/DTD/sodipodi-0.dtd"
   xmlns="http://www.w3.org/2000/svg"
   xmlns:svg="http://www.w3.org/2000/svg"><sodipodi:namedview
     id="namedview1"
     pagecolor="#ffffff"
     bordercolor="#000000"
     borderopacity="0.25"
     inkscape:showpageshadow="2"
     inkscape:pageopacity="0.0"
     inkscape:pagecheckerboard="0"
     inkscape:deskcolor="#d1d1d1"
     inkscape:document-units="mm"
     inkscape:zoom="0.53273008"
     inkscape:cx="557.5056"
     inkscape:cy="352.89917"
     inkscape:window-width="1368"
     inkscape:window-height="842"
     inkscape:window-x="-6"
     inkscape:window-y="-6"
     inkscape:window-maximized="1"
     inkscape:current-layer="layer1" /><defs
     id="defs1" /><g
     inkscape:label="Layer 1"
     inkscape:groupmode="layer"
     id="layer1"
     transform="translate(42.64348,-55.263203)"><path
       style="fill:#000000"
       d="m 90.706516,87.375685 c -5.59098,-0.99818 -8.58748,-2.34706 -11.33788,-5.10379 -2.80095,-2.807403 -4.07248,-6.245963 -4.07352,-11.015973 -0.002,-8.50077 4.60147,-13.81124 13.54254,-15.62293 3.13149,-0.63452 9.87087,-0.42144 12.714894,0.40202 5.33512,1.54472 8.87734,4.95364 9.43097,9.07607 l 0.16969,1.26351 -4.3293,-0.0729 -4.3293,-0.0729 -0.18826,-1.10426 c -0.59033,-3.46277 -3.363364,-5.24521 -8.160254,-5.24521 -3.43897,0 -4.95634,0.54786 -6.89967,2.49118 -2.11422,2.11423 -2.67335,3.69019 -2.82386,7.95933 -0.22125,6.27547 1.34606,9.8444 5.10449,11.623463 1.82686,0.86475 5.55739,1.06622 7.91685,0.42754 2.823154,-0.76419 4.701364,-2.823803 5.077484,-5.567863 l 0.16331,-1.19147 h 4.36374 4.36375 l -0.17845,1.34528 c -0.33454,2.52188 -1.16781,4.212353 -2.96096,6.006943 -2.88678,2.88912 -6.86661,4.20485 -13.332934,4.40787 -1.96453,0.0617 -3.86953,0.059 -4.23333,-0.006 z M -42.643236,71.322062 -42.64348,55.777792 h 4.101042 4.101042 v 6.21771 6.21771 h 8.598958 8.598959 v -6.21771 -6.21771 h 4.233333 4.2333328 v 15.54427 15.544273 h -4.2333328 -4.233333 v -6.948983 -6.94897 l -8.532813,0.0698 -8.532812,0.0698 -0.07024,6.87917 -0.07024,6.879163 h -4.096709 -4.096699 z m 41.0101728,-0.13229 v -15.67656 h 4.233334 4.233333 v 15.67656 15.676563 h -4.233333 -4.233334 z m 24.0773272,2.64583 -2.43e-4,-13.03073 h -6.217709 -6.217708 v -2.51354 -2.51354 h 16.536458 16.536459 v 2.51354 2.51354 h -6.217709 -6.217708 l 1.65e-4,13.03073 1.65e-4,13.030733 h -4.100963 -4.100963 z m 13.493507,13.018383 c 0,-0.0791 6.29,-13.087573 11.859951,-24.527753 l 3.188279,-6.54844 5.374325,0.002 5.37432,0.002 2.8948,6.01769 c 1.59214,3.30972 4.95566,10.27886 7.47448,15.48697 2.51882,5.208123 4.57974,9.494373 4.57983,9.525003 8e-5,0.0306 -2.11328,0.0332 -4.69636,0.006 l -4.69651,-0.05 -1.47448,-3.38955 -1.47448,-3.389553 h -8.05051 -8.05052 l -1.437965,3.373433 -1.437964,3.37344 -3.721411,0.0238 c -2.046775,0.0131 -4.167895,0.0573 -4.713598,0.0982 -0.545703,0.0409 -0.992187,0.04 -0.992187,-0.002 z M 62.131516,74.965152 c 0,-0.0773 -1.25015,-3.11014 -2.77812,-6.73954 -1.52797,-3.6294 -2.77813,-6.7481 -2.77813,-6.93045 0,-0.20596 -0.0897,-0.23633 -0.23691,-0.0802 -0.22343,0.23704 -5.47656,12.44247 -5.766028,13.39711 -0.123742,0.40809 0.358895,0.44778 5.712018,0.46972 3.21594,0.0132 5.84717,-0.0393 5.84717,-0.11666 z m 53.445664,-3.64309 1.7e-4,-15.54427 h 4.23334 4.23333 v 6.21771 6.21771 h 8.46667 8.46666 v -6.21771 -6.21771 h 4.23334 4.23333 l 3e-5,15.54427 2e-5,15.544273 -4.16721,-0.052 -4.16722,-0.052 -0.0705,-6.893323 -0.0705,-6.89331 h -8.45788 -8.45788 l -0.0705,6.88845 -0.0705,6.888453 -4.16737,0.0569 -4.16736,0.0569 z m 40.74705,-0.13229 -0.001,-15.67656 h 4.23333 4.23333 l 3e-5,15.67656 2e-5,15.676563 h -4.23232 -4.23231 z"
       id="path1" /></g></svg>
