<svg width="200" height="77" viewBox="0 0 200 77" fill="none" xmlns="http://www.w3.org/2000/svg">
<g id="J&#38;J logo - standard">
<path id="Vector" d="M153.568 34.4604V19.3482C153.568 15.8867 155.347 13.8728 158.2 13.8728C160.961 13.8728 162.179 15.6997 162.179 18.4561V34.4604H167.703V18.4134C167.703 13.595 165.176 10.5982 160.31 10.5982C156.848 10.5982 154.931 12.094 153.851 14.0117H153.568V11.063H148.045V34.4551H153.568V34.4604ZM133.355 32.3557C129.754 32.3557 127.74 28.9423 127.74 22.7617C127.74 16.4903 129.754 13.1677 133.355 13.1677C136.955 13.1677 138.969 16.5384 138.969 22.7617C138.969 29.0331 136.955 32.3557 133.355 32.3557ZM133.355 34.9305C140.7 34.9305 144.77 29.4551 144.77 22.767C144.77 16.079 140.7 10.6036 133.355 10.6036C126.01 10.6036 121.939 16.079 121.939 22.767C121.939 29.4551 126.01 34.9305 133.355 34.9305ZM109.914 34.9305C116.229 34.9305 119.647 31.9818 119.647 27.3023C119.647 22.9059 116.608 21.079 113.424 20.2831L108.932 19.1613C106.688 18.6004 105.705 17.5694 105.705 16.0737C105.705 14.204 107.297 13.0769 109.679 13.0769C112.489 13.0769 114.22 14.6207 114.45 17.5694L119.129 16.1645C118.568 12.8899 115.342 10.5982 110.144 10.5982C105.043 10.5982 101.207 12.751 101.207 17.3344C101.207 21.2179 103.873 23.3226 106.87 24.0705L111.549 25.2403C114.028 25.8493 115.15 26.7361 115.15 28.7019C115.15 31.0897 113.467 32.4465 110.518 32.4465C107.334 32.4465 105.7 30.9027 105.187 27.0192L100.23 28.4241C100.507 32.4465 104.252 34.9305 109.914 34.9305ZM83.4775 34.4604V19.3482C83.4775 15.8867 85.2564 13.8728 88.1089 13.8728C90.8707 13.8728 92.0886 15.6997 92.0886 18.4561V34.4604H97.6121V18.4134C97.6121 13.595 95.0854 10.5982 90.219 10.5982C86.7574 10.5982 84.8397 12.094 83.7606 14.0117H83.4775V11.063H77.954V34.4551H83.4775V34.4604ZM59.3856 34.4604V19.3482C59.3856 15.8867 61.1645 13.8728 64.017 13.8728C66.7788 13.8728 67.9914 15.6997 67.9914 18.4561V34.4604H73.5149V18.4134C73.5149 13.595 70.9882 10.5982 66.1217 10.5982C62.6602 10.5982 60.7425 12.094 59.6634 14.0117H59.3803V1.70935H53.8568V34.4604H59.3856ZM39.172 32.3557C35.5662 32.3557 33.5576 28.9423 33.5576 22.7617C33.5576 16.4903 35.5715 13.1677 39.172 13.1677C42.7724 13.1677 44.7863 16.5384 44.7863 22.7617C44.7916 29.0331 42.7777 32.3557 39.172 32.3557ZM39.172 34.9305C46.517 34.9305 50.5876 29.4551 50.5876 22.767C50.5876 16.079 46.517 10.6036 39.172 10.6036C31.8269 10.6036 27.7564 16.079 27.7564 22.767C27.7564 29.4551 31.8269 34.9305 39.172 34.9305ZM13.6271 35.2083C21.4423 35.2083 24.4818 30.5288 24.4818 24.4017V1.70935H18.6805V25.8974C18.6805 29.829 17.1848 32.1688 13.6271 32.1688C10.1175 32.1688 8.57367 29.6901 8.57367 25.4326V20.9401L2.77239 22.3878V24.4017C2.77239 30.5288 5.81726 35.2083 13.6271 35.2083ZM184.541 74.4658V59.3536C184.541 55.8921 186.319 53.8782 189.172 53.8782C191.934 53.8782 193.152 55.7051 193.152 58.4615V74.4658H198.675V58.4188C198.675 53.6004 196.148 50.6036 191.282 50.6036C187.82 50.6036 185.903 52.0993 184.824 54.0171H184.546V51.0683H179.022V74.4604H184.541V74.4658ZM164.332 72.3611C160.732 72.3611 158.718 68.9476 158.718 62.7671C158.718 56.4957 160.732 53.173 164.332 53.173C167.933 53.173 169.947 56.5438 169.947 62.7671C169.947 69.0384 167.933 72.3611 164.332 72.3611ZM164.332 74.9359C171.677 74.9359 175.748 69.4604 175.748 62.7724C175.748 56.079 171.677 50.6089 164.332 50.6089C156.987 50.6089 152.917 56.0844 152.917 62.7724C152.917 69.4604 156.987 74.9359 164.332 74.9359ZM140.892 74.9359C147.206 74.9359 150.625 71.9871 150.625 67.3076C150.625 62.9113 147.585 61.0844 144.402 60.2884L139.909 59.1666C137.666 58.6057 136.683 57.5747 136.683 56.079C136.683 54.2094 138.275 53.0822 140.662 53.0822C143.472 53.0822 145.203 54.626 145.433 57.5747L150.112 56.1698C149.551 52.8953 146.325 50.6036 141.127 50.6036C136.026 50.6036 132.19 52.7564 132.19 57.3397C132.19 61.2232 134.856 63.3279 137.853 64.0758L142.532 65.2457C145.011 65.8547 146.132 66.7414 146.132 68.7072C146.132 71.095 144.45 72.4519 141.501 72.4519C138.317 72.4519 136.683 70.9081 136.17 67.0245L131.213 68.4295C131.485 72.4519 135.23 74.9359 140.892 74.9359ZM114.455 74.4658V59.3536C114.455 55.8921 116.234 53.8782 119.086 53.8782C121.848 53.8782 123.061 55.7051 123.061 58.4615V74.4658H128.584V58.4188C128.584 53.6004 126.058 50.6036 121.191 50.6036C117.73 50.6036 115.812 52.0993 114.733 54.0171H114.45V51.0683H108.926V74.4604H114.455V74.4658ZM90.3632 74.4658V59.3536C90.3632 55.8921 92.142 53.8782 94.9946 53.8782C97.7564 53.8782 98.969 55.7051 98.969 58.4615V74.4658H104.492V58.4188C104.492 53.6004 101.966 50.6036 97.0993 50.6036C93.6378 50.6036 91.72 52.0993 90.641 54.0171H90.3578V41.7147H84.8344V74.4658H90.3632ZM70.1495 72.3611C66.5491 72.3611 64.5352 68.9476 64.5352 62.7671C64.5352 56.4957 66.5491 53.173 70.1495 53.173C73.75 53.173 75.7638 56.5438 75.7638 62.7671C75.7638 69.0384 73.7553 72.3611 70.1495 72.3611ZM70.1495 74.9359C77.4946 74.9359 81.5651 69.4604 81.5651 62.7724C81.5651 56.079 77.4946 50.6089 70.1495 50.6089C62.8044 50.6089 58.7339 56.0844 58.7339 62.7724C58.7339 69.4604 62.8044 74.9359 70.1495 74.9359ZM44.6047 75.2136C52.4198 75.2136 55.4594 70.5341 55.4594 64.407V41.7147H49.6581V65.9027C49.6581 69.8344 48.1623 72.1741 44.6047 72.1741C41.095 72.1741 39.5512 69.6955 39.5512 65.438V60.9455L33.75 62.3985V64.4123C33.75 70.5341 36.7895 75.2136 44.6047 75.2136ZM13.7286 71.8002C9.23606 71.8002 6.47431 68.1517 6.47431 64.2681C6.47431 61.8376 7.54803 59.5886 9.32687 58.3279L19.9038 69.8824C17.938 71.0523 15.7371 71.8002 13.7286 71.8002ZM19.3856 55.048C23.173 55.048 25.5128 57.2489 25.5128 61.0363C25.5128 62.719 25.0427 64.4497 24.017 66.0416L14.8504 55.9348C16.485 55.2831 18.0769 55.048 19.3856 55.048ZM13.7286 43.4455C16.4903 43.4455 18.125 45.0373 18.125 47.938C18.125 50.6036 16.8162 53.1303 13.5844 54.5833L11.5705 52.3397C9.79162 50.3739 9.2788 49.1559 9.2788 47.7083C9.2788 44.9893 11.0149 43.4455 13.7286 43.4455ZM25.47 67.6335C27.9967 64.6367 29.4444 61.3621 29.4444 58.5096C29.4444 54.9519 27.0566 52.5694 23.3173 52.5694C21.3514 52.5694 19.1506 53.1303 17.7029 53.6912L17.6068 53.5042C21.1645 51.5865 22.6602 49.8076 22.6602 47.329C22.6602 43.7713 19.4764 40.9668 13.8621 40.9668C7.4038 40.9668 4.22538 44.5673 4.22538 49.0598C4.22538 51.4903 5.25636 53.9262 7.97004 56.875L8.01811 56.9711C3.43478 59.172 1.33008 62.7243 1.33008 66.3782C1.33008 71.1965 5.02666 75.219 10.7318 75.219C14.0064 75.219 17.8418 73.8621 21.3087 71.4316L24.1185 74.4711H31.4636V74.2361L25.47 67.6335Z" fill="#EB1700"/>
</g>
</svg>
