<?xml version="1.0" encoding="UTF-8"?>
<svg id="Layer_1" data-name="Layer 1" xmlns="http://www.w3.org/2000/svg" viewBox="0 0 745.25 314">
  <defs>
    <style>
      .cls-1 {
        fill: #e30613;
        stroke-width: 0px;
      }
    </style>
  </defs>
  <path class="cls-1" d="m673.01,123.84c-2.41,2.62-9.63,10.39-11.09,11.98-.84.91-1.55,1.16-2.83.34-4.33-2.78-9.13-4.9-14.51-6.08-6.61-1.44-13.33-1.82-20.05-.51-1.98.39-4,.93-5.76,1.74-6.51,3-6.45,9.58.23,12.36,3.42,1.42,7.19,2.39,10.91,3.24,7.39,1.68,14.92,3,22.29,4.74,5.06,1.19,9.81,3.09,13.92,5.79,6.68,4.4,9.43,10.18,9.31,16.98-.17,10.43-6.54,17.73-17.96,22.43-8.62,3.55-17.92,4.7-27.54,4.6-8.69-.09-17.09-1.38-25.13-3.98-6.69-2.16-12.74-5.23-18.24-9,3.8-3.98,7.47-8.04,11.18-12.08.71-.78,1.37-.85,2.33-.17,5.17,3.65,11.06,6.32,17.75,7.73,7.21,1.52,14.51,1.75,21.85.52,3.43-.58,6.61-1.52,9.13-3.52,4.1-3.26,3.63-7.89-1.04-10.66-3.39-2.01-7.35-3.01-11.35-3.88-7.53-1.64-15.18-2.98-22.62-4.85-6.63-1.67-12.9-4.1-17.53-8.47-5.64-5.31-7.16-11.51-5.92-18.27,1.01-5.47,4.01-10.11,9.2-13.79,4.12-2.92,8.92-4.88,14.18-6.23,7.98-2.06,16.17-2.63,24.43-2.05,10.53.74,20.39,3.26,29.27,7.93,1.82.95,3.55,2.01,5.56,3.15Z"/>
  <rect class="cls-1" x="166.83" y="114.08" width="20.26" height="85.84"/>
  <path class="cls-1" d="m269.88,113.08c-20.14-3.11-34.42,9.16-38.35,12.33v-10.11c-.01-.68-.56-1.22-1.24-1.22h-19l-.04,85.84h20.62l.26-55.54c0-.2.04-.38.13-.56,2.33-4.43,13.32-14.41,26.92-12.95,20.38,1.97,20.74,22.98,20.74,22.98l.13,46.07h20.27l.03-55.7s-1.08-25.94-30.46-31.13Z"/>
  <path class="cls-1" d="m694.81,114.58c8.58-2.1,16.17,5.53,14.07,14.16-.99,4.05-4.29,7.38-8.32,8.37-8.57,2.1-16.16-5.53-14.07-14.15.98-4.05,4.29-7.38,8.32-8.37Zm2.88,20.81c5.25,0,9.51-4.27,9.51-9.55s-4.26-9.55-9.51-9.55-9.5,4.28-9.5,9.55,4.26,9.55,9.5,9.55Zm-4.44-16.26h5.09c3.17,0,4.66,1.43,4.66,3.99,0,2.31-1.37,3.43-3.17,3.65l3.45,5.62h-2.55l-3.29-5.43h-1.77v5.43h-2.42v-13.26Zm2.42,5.77h1.77c1.49,0,3.14-.1,3.14-1.88s-1.65-1.87-3.14-1.84h-1.77v3.72Z"/>
  <rect class="cls-1" x="546.07" y="114.11" width="20.26" height="85.81"/>
  <path class="cls-1" d="m526.52,114.11h-24.96c-.97,0-1.88.43-2.5,1.18l-20.82,25.5-13.24,16.22,13.24,16.22,20.82,25.5c.61.75,1.53,1.18,2.5,1.18h24.96l-35.02-42.9,35.02-42.9Z"/>
  <path class="cls-1" d="m478.25,140.8l-20.81-25.49c-.62-.75-1.54-1.19-2.51-1.19h-24.95l35.02,42.9-35.02,42.9h24.95c.97,0,1.9-.44,2.51-1.19l20.81-25.49,13.24-16.22-13.24-16.22Z"/>
  <g>
    <rect class="cls-1" x="61.95" y="114.11" width="20.31" height="85.81"/>
    <path class="cls-1" d="m147.7,114.11h-25.05c-.91,0-1.77.41-2.34,1.11l-20.88,25.57-13.24,16.22,13.24,16.22,20.88,25.57c.57.7,1.44,1.11,2.34,1.11h25.05l-35.03-42.91,35.03-42.91Z"/>
  </g>
  <path class="cls-1" d="m389.75,115.32v10c-7.45-7.87-17.66-12.73-28.93-12.73-22.81,0-41.29,19.88-41.29,44.41s18.49,44.41,41.29,44.41c11.27,0,21.48-4.86,28.93-12.73v10.12c0,.64.52,1.17,1.17,1.17h19.1v-85.81h-19.1c-.64,0-1.17.52-1.17,1.17Zm-25.27,66.67c-13.96,0-25.27-11.19-25.27-25s11.32-25,25.27-25,25.27,11.19,25.27,25-11.32,25-25.27,25Z"/>
</svg>