<?xml version="1.0" encoding="utf-8"?>
<!-- Uploaded to: SVG Repo, www.svgrepo.com, Generator: SVG Repo Mixer Tools -->
<svg width="800px" height="800px" viewBox="0 -33.5 1091 1091" class="icon"  version="1.1" xmlns="http://www.w3.org/2000/svg"><path d="M287.084555 203.324767c87.58141 50.563128 158.686247 173.723609 158.686247 274.852672 0 101.131868-71.104838 142.184426-158.686247 91.618492-87.58141-50.565934-158.686247-173.723609-158.686247-274.855477 0-101.129062 71.104838-142.181621 158.686247-91.615687zM888.823097 453.520093c111.44761 64.343636 201.929884 221.063243 201.929883 349.753321 0 128.690077-90.482274 180.930882-201.929883 116.587246-111.450416-64.346441-201.932689-221.066049-201.93269-349.756126 0-128.690077 90.482274-180.930882 201.93269-116.584441z" fill="#6D8ACA" /><path d="M408.817047 97.625582c67.185585 38.788538 121.732492 133.265812 121.732492 210.845692s-54.546907 109.07137-121.732492 70.282833c-67.185585-38.791343-121.732492-133.268617-121.732492-210.848498 0-77.579881 54.546907-109.07137 121.732492-70.280027z" fill="#6D8ACA" /><path d="M686.890407 32.482384c131.425418 75.879761 238.128965 260.690619 238.128966 412.447336 0 151.759522-106.703547 213.362206-238.128966 137.482445-131.425418-75.876956-238.12616-260.690619-238.12616-412.447335 0-151.756717 106.700742-213.362206 238.12616-137.482446z" fill="#6D8ACA" /><path d="M925.019373 571.633519L287.084555 203.324767v366.471164l637.934818 368.311557V571.633519z" fill="#6D8ACA" /><path d="M1040.161797 867.229894l-128.398308 74.129143v61.142586l128.398308-74.129143V867.229894zM522.113467 13.797901l-135.383947 78.163421v35.727761l135.383947-78.16342V13.797901zM327.230944 86.796437L194.357899 163.51223v83.418081l132.873045-76.715794V86.796437zM173.538447 193.724422L51.733013 264.049337v57.049393l121.805434-70.324915V193.724422z" fill="#6D8ACA" /><path d="M158.686247 277.45391c87.58141 50.565934 158.689053 173.723609 158.689053 274.855477 0 101.129062-71.107643 142.181621-158.689053 91.615687C71.104838 593.361946 0 470.204271 0 369.072403s71.104838-142.184426 158.686247-91.618493zM760.424789 527.649236c111.44761 64.346441 201.929884 221.066049 201.929884 349.756127 0 128.690077-90.482274 180.930882-201.929884 116.58444-111.450416-64.343636-201.932689-221.063243-201.93269-349.753321 0-128.690077 90.482274-180.930882 201.93269-116.587246z" fill="#4762AF" /><path d="M280.418739 171.754725c67.188391 38.788538 121.732492 133.268617 121.732493 210.848498 0 77.579881-54.544102 109.07137-121.732493 70.280027-67.185585-38.788538-121.732492-133.265812-121.732492-210.845693s54.546907-109.07137 121.732492-70.282832z" fill="#4762AF" /><path d="M558.492099 106.614333c131.428224 75.876956 238.128965 260.690619 238.128966 412.447335 0 151.756717-106.700742 213.362206-238.128966 137.482446-131.425418-75.879761-238.12616-260.690619-238.126159-412.447336 0-151.759522 106.700742-213.362206 238.126159-137.482445z" fill="#4762AF" /><path d="M796.621065 645.765468L158.686247 277.45391v366.471164l637.934818 368.311557V645.765468z" fill="#4762AF" /></svg>