<?xml version="1.0" encoding="utf-8"?>
<!-- Uploaded to: SVG Repo, www.svgrepo.com, Generator: SVG Repo Mixer Tools -->
<svg width="800px" height="800px" viewBox="0 0 1024 1024" class="icon"  version="1.1" xmlns="http://www.w3.org/2000/svg"><path d="M411.19333 128.288363s53.766876-23.295898 106.488423-25.557221l1.287105 18.709251-60.273514 20.636354-47.502014-13.788384z" fill="#6D8ACA" /><path d="M393.756962 351.0785S364.686867 131.680348 516.195537 102.667142c10.239955-1.962658 47.054016 53.79532 47.331349 118.890146 0 0 43.925141 6.527971 31.800749-91.384489 0 0-11.626616-149.169125 109.702632-128.13455 8.917294 1.543104-2.474656 24.760781-8.732407 52.287771-5.99464 26.374996 3.278208 59.050408 17.877255 78.762322 16.796371 22.663012 29.902091 40.085158 48.206012 58.66641 22.7839 23.146565 43.071812 49.336673 58.581077 78.328546 17.37948 32.490525 28.636319 68.40859 27.811434 102.285775C846.647425 460.304688 792.411218 577.793952 710.399132 554.099834c-47.523348-13.731495-108.365748-96.98802-153.229552-123.547904-53.560655-31.715417-108.721302-52.586437-163.412618-79.47343z" fill="#6D8ACA" /><path d="M677.026834 0.160924s-31.750972-1.023996-56.860196 3.996427c-23.17501 4.636424-43.797142 17.159036-48.59001 20.238133-9.08796 5.852419 7.615967 6.286195 7.615967 6.286195l75.974779-14.791046L677.026834 0.160924z" fill="#6D8ACA" /><path d="M323.88349 365.293549s-29.070095-219.398151 122.438575-248.411358c10.239955-1.962658 47.061127 53.79532 47.331349 118.890146 0 0 43.932252 6.535083 31.800749-91.384489 0 0-11.626616-149.169125 109.702632-128.13455 8.917294 1.543104-2.474656 24.760781-8.732407 52.294882-5.987529 26.367885 3.278208 59.043297 17.884366 78.755211 16.78926 22.663012 29.902091 40.085158 48.198901 58.673521 22.7839 23.146565 43.071812 49.329562 58.581077 78.321435 17.386591 32.490525 28.636319 68.40859 27.818545 102.292886-2.133324 87.928504-56.369531 205.417768-138.374506 181.72365-47.530459-13.724384-108.372859-96.980909-153.236663-123.547904-53.553543-31.715417-108.721302-52.586437-163.412618-79.47343z" fill="#4762AF" /><path d="M300.559147 489.865448l-14.15816-8.177742V557.228709l14.15816 8.170631V489.865448z" fill="#D0DBF7" /><path d="M348.758048 445.684308l-62.357061 36.003398 14.15816 8.177742 62.357061-36.003398-14.15816-8.177742zM479.594808 521.225311l-62.35706 36.003398 14.15816 8.170631 62.357061-35.996287-14.158161-8.177742z" fill="#D0DBF7" /><path d="M608.127579 512.322239L160.477982 253.870036C150.401582 248.053173 142.22384 254.239812 142.22384 267.672642v88.276947l465.903739 268.983712V512.322239zM798.903634 735.083931L142.22384 355.949589v93.510702l656.679794 379.127231v-93.503591z" fill="#6D8ACA" /><path d="M798.903634 828.587522L142.22384 449.460291v93.503591l656.679794 379.134342v-93.510702z" fill="#6D8ACA" /><path d="M798.903634 922.069779L142.22384 542.942549V636.44614l656.679794 379.134341v-93.510702zM798.903634 641.544784L608.148913 531.415488v93.503591l190.754721 110.136407v-93.510702z" fill="#6D8ACA" /><path d="M233.949661 226.158157c-10.958174-6.328861-27.569657-7.011525-37.062949-1.535993l-46.065576 26.595439c-12.543945 7.246191-10.972396 19.925246 3.519984 28.287876l631.847903 364.798404 86.008512-49.64956-638.247874-368.496166z" fill="#6D8ACA" /><path d="M319.204399 364.589552l-17.521701-10.119067v93.510702l17.521701 10.119067V364.589552zM221.661715 411.935122l-17.528813-10.119067v93.510702l17.528813 10.119067v-93.510702zM375.17571 500.567623l-17.528812-10.119066v93.510702l17.528812 10.119066v-93.510702zM269.547727 533.093703l-17.528812-10.119067v93.510702l17.528812 10.119067v-93.510702zM426.574596 623.752862l-17.521701-10.119067v93.510702l17.521701 10.119067v-93.510702zM319.204399 645.150102l-17.521701-10.119067v93.510702l17.521701 10.119067v-93.510702zM472.405507 733.597715l-17.521702-10.119067v93.510702l17.521702 10.119067v-93.510702zM662.250009 843.200791l-17.528812-10.119067v93.510702l17.528812 10.119067v-93.510702zM805.097384 925.675097l-17.528812-10.119067v93.510702l17.528812 10.119067v-93.510702zM598.64851 723.101761l-17.528812-10.119067v93.503591l17.528812 10.119067v-93.503591zM741.85855 805.782288l-17.521701-10.119067v93.510702l17.521701 10.119067v-93.510702zM541.347427 596.510315l-17.528812-10.119067V679.894839l17.528812 10.119067V596.510315zM694.861422 685.135705l-17.528812-10.119067v93.510702l17.528812 10.119067v-93.510702zM805.097384 748.786982l-17.528812-10.119067v93.503591l17.528812 10.119067v-93.503591z" fill="#D0DBF7" /><path d="M805.097384 842.290573l-17.528812-10.119067v93.510702l17.528812 10.119067v-93.510702zM805.097384 738.689248L142.22384 355.978034v20.195467l662.873544 382.711214v-20.195467zM805.097384 645.121658L143.126947 262.929552c-0.497776-0.284443-0.903107 0.021333-0.903107 0.682664v18.993694L805.097384 665.317125v-20.195467z" fill="#D0DBF7" /><path d="M805.097384 832.192839L142.22384 449.481625v20.202578l662.873544 382.704103v-20.195467zM805.097384 925.731985L142.22384 543.020771v20.195467l662.873544 382.711215v-20.195468zM643.135426 551.610956l-17.528812-10.119067v93.510702l17.528812 10.119067V551.610956zM805.097384 650.86741l-17.528812-10.119067v87.76495l17.528812 10.119067V650.86741zM378.873471 309.905346l-77.190773 44.565139 17.521701 10.119067 77.190773-44.565139-17.521701-10.119067z" fill="#D0DBF7" /><path d="M876.094407 599.205414l-70.997023 40.988265v377.932569l70.997023-40.988265V599.205414z" fill="#6D8ACA" /><path d="M876.094407 884.74372l-70.997023 40.988265v20.195468l70.997023-40.988265v-20.195468zM876.094407 791.183241l-70.997023 40.988265v20.195467l70.997023-40.988265v-20.195467zM876.094407 697.644094l-70.997023 40.988266v20.195467l70.997023-40.988265v-20.195468zM864.823345 590.394786l-77.254773 44.607805 17.528812 10.119067 67.334817-38.876275c5.475532-3.164431 4.785757-8.68974-1.535993-12.344835l-6.072863-3.505762z" fill="#D0DBF7" /></svg>