<?xml version="1.0" encoding="utf-8"?>
<!-- Uploaded to: SVG Repo, www.svgrepo.com, Generator: SVG Repo Mixer Tools -->
<svg width="800px" height="800px" viewBox="0 0 1024 1024" class="icon"  version="1.1" xmlns="http://www.w3.org/2000/svg"><path d="M529.024595 370.352223c0-7.446623-4.534177-16.11014-10.118548-19.334549L208.567367 171.84387C199.260874 166.46906 191.702326 172.184409 191.702326 184.59386v642.162307c0 9.928037 6.046363 21.480186 13.492986 25.780986l276.603832 159.696373c26.064372 15.048037 47.225451-0.947795 47.225451-35.701879V370.352223z" fill="#4E6FBB" /><path d="M831.552298 190.544967c0-4.608-2.805284-6.729823-6.260689-4.734214l-300.586865 173.544187c-3.455405 1.995609-6.26307 7.35613-6.26307 11.96413v617.019535c0 25.345191 15.433823 37.011647 34.442121 26.035795l272.407814-157.272112c3.455405-1.995609 6.260688-7.358512 6.260689-11.966511V190.544967z" fill="#4D6FBB" /><path d="M540.207628 9.082642c-19.01306-10.978233-47.8208-12.171312-64.288149-2.664782L204.514233 163.113674c-16.464967 9.50653-14.397916 26.138195 4.617525 37.116428l275.613172 159.124838c19.01306 10.978233 47.8208 12.173693 64.288149 2.664781l271.405247-156.695814c16.467349-9.50653 14.397916-26.138195-4.615145-37.116428L540.207628 9.082642z" fill="#6D8ACA" /><path d="M540.207628 663.661544c-19.01306-10.978233-47.8208-12.173693-64.288149-2.664781L204.514233 817.692577c-16.464967 9.50653-14.397916 26.138195 4.617525 37.116428l275.613172 159.124837c19.01306 10.978233 47.8208 12.173693 64.288149 2.664781l271.405247-156.695814c16.467349-9.50653 14.397916-26.138195-4.615145-37.116428l-275.615553-159.124837z" fill="#4D6FBB" /><path d="M513.252614 533.239665L193.40026 348.571981v36.425824l319.852354 184.665302v-36.423442zM815.780316 358.573842l-302.527702 174.665823v36.423442l302.527702-174.663442v-36.425823z" fill="#4467AE" /><path d="M454.636949 659.105935c0-2.138493-1.300242-4.62467-2.902921-5.551033l-210.898754-121.760744c-1.602679-0.926363-2.905302 0.057153-2.905302 2.195647v69.703442c0 2.136112 1.302623 4.622288 2.905302 5.548651l210.898754 121.763125c1.602679 0.923981 2.902921-0.059535 2.902921-2.195646v-69.703442zM454.636949 809.276726c0-2.136112-1.300242-4.622288-2.902921-5.548652l-210.898754-121.763125c-1.602679-0.923981-2.905302 0.059535-2.905302 2.195646v69.703442c0 2.138493 1.302623 4.62467 2.905302 5.548651l210.898754 121.763126c1.602679 0.926363 2.902921-0.057153 2.902921-2.195647v-69.703441z" fill="#6D8ACA" /><path d="M440.348577 355.316093c7.887181 4.550847 14.288372 18.879702 14.288372 31.977377 0 13.095293-6.401191 20.032298-14.288372 15.47907-7.8848-4.553228-14.288372-18.882084-14.288372-31.977377 0-13.097674 6.403572-20.032298 14.288372-15.47907zM440.348577 421.995163c7.887181 4.550847 14.288372 18.879702 14.288372 31.977377 0 13.095293-6.401191 20.032298-14.288372 15.479069-7.8848-4.553228-14.288372-18.882084-14.288372-31.977376 0-13.097674 6.403572-20.032298 14.288372-15.47907z" fill="#EDEEF0" /></svg>