<?xml version="1.0" standalone="no"?><!DOCTYPE svg PUBLIC "-//W3C//DTD SVG 1.1//EN" "http://www.w3.org/Graphics/SVG/1.1/DTD/svg11.dtd"><svg t="1550230853421" class="icon" style="" viewBox="0 0 1024 1024" version="1.1" xmlns="http://www.w3.org/2000/svg" p-id="5496" xmlns:xlink="http://www.w3.org/1999/xlink" width="128" height="128"><defs><style type="text/css"></style></defs><path d="M955.076923 748.307692H866.461538v-88.615384c0-15.753846-13.784615-29.538462-29.538461-29.538462h-59.076923c-15.753846 0-29.538462 13.784615-29.538462 29.538462V748.307692h-88.615384c-15.753846 0-29.538462 13.784615-29.538462 29.538462v59.076923c0 15.753846 13.784615 29.538462 29.538462 29.538461H748.307692v88.615385c0 15.753846 13.784615 29.538462 29.538462 29.538462h59.076923c15.753846 0 29.538462-13.784615 29.538461-29.538462V866.461538h88.615385c15.753846 0 29.538462-13.784615 29.538462-29.538461v-59.076923c0-15.753846-13.784615-29.538462-29.538462-29.538462zM669.538462 580.923077c0-15.753846 13.784615-29.538462 29.538461-29.538462H748.307692V118.153846c0-43.323077-35.446154-78.769231-78.76923-78.769231H118.153846C74.830769 39.384615 39.384615 74.830769 39.384615 118.153846v551.384616c0 43.323077 35.446154 78.769231 78.769231 78.76923h433.230769v-49.230769c0-15.753846 13.784615-29.538462 29.538462-29.538461H669.538462v-88.615385zM315.076923 216.615385c0 11.815385-7.876923 19.692308-19.692308 19.692307H177.230769c-11.815385 0-19.692308-7.876923-19.692307-19.692307V177.230769c0-11.815385 7.876923-19.692308 19.692307-19.692307h118.153846c11.815385 0 19.692308 7.876923 19.692308 19.692307v39.384616z m236.307692 315.076923c0 11.815385-7.876923 19.692308-19.692307 19.692307H177.230769c-11.815385 0-19.692308-7.876923-19.692307-19.692307v-39.384616c0-11.815385 7.876923-19.692308 19.692307-19.692307h354.461539c11.815385 0 19.692308 7.876923 19.692307 19.692307v39.384616z m78.769231-157.538462c0 11.815385-7.876923 19.692308-19.692308 19.692308H177.230769c-11.815385 0-19.692308-7.876923-19.692307-19.692308v-39.384615c0-11.815385 7.876923-19.692308 19.692307-19.692308h433.230769c11.815385 0 19.692308 7.876923 19.692308 19.692308v39.384615z" p-id="5497" fill="#d81e06"></path></svg>