<?xml version="1.0" encoding="UTF-8"?>
<svg xmlns="http://www.w3.org/2000/svg" xmlns:xlink="http://www.w3.org/1999/xlink" viewBox="0 0 16 16" version="1.1" width="18px" height="18px">
<g id="surface1">
<path style=" " d="M 4.5 2 C 3.675781 2 3 2.675781 3 3.5 L 3 12.5 C 3 13.324219 3.675781 14 4.5 14 L 11.5 14 C 12.324219 14 13 13.324219 13 12.5 L 13 5.292969 L 9.707031 2 Z M 4.5 3 L 9 3 L 9 6 L 12 6 L 12 12.5 C 12 12.78125 11.78125 13 11.5 13 L 4.5 13 C 4.21875 13 4 12.78125 4 12.5 L 4 3.5 C 4 3.21875 4.21875 3 4.5 3 Z M 10 3.707031 L 11.292969 5 L 10 5 Z M 6 8 L 6 9 L 10 9 L 10 8 Z M 6 10 L 6 11 L 9 11 L 9 10 Z "/>
</g>
</svg>
