<svg id="Group_674" data-name="Group 674" xmlns="http://www.w3.org/2000/svg" xmlns:xlink="http://www.w3.org/1999/xlink" width="19.606" height="21.704" viewBox="0 0 19.606 21.704">
  <defs>
    <clipPath id="clip-path">
      <rect id="Rectangle_3951" data-name="Rectangle 3951" width="19.606" height="21.704"/>
    </clipPath>
  </defs>
  <g id="Group_674-2" data-name="Group 674" clip-path="url(#clip-path)">
    <path id="Path_82" data-name="Path 82" d="M17.476,17.736c-1.873-.468-4.264-.874-4.929-2.988a1.144,1.144,0,0,1-.047-.239,2.346,2.346,0,0,0,1.324-.26.69.69,0,0,1-.5-.586,2.054,2.054,0,0,0,2.255-.449.6.6,0,0,1-.683-.495,1.312,1.312,0,0,0,1.455-1.4c-1.078.345-1.494-.56-1.344-2.1.514-4.335.028-7.836-3.34-8.927a6.056,6.056,0,0,0-3.725,0C4.573,1.384,4.087,4.886,4.6,9.221c.15,1.542-.266,2.447-1.344,2.1a1.312,1.312,0,0,0,1.455,1.4.6.6,0,0,1-.683.495,2.054,2.054,0,0,0,2.255.449.69.69,0,0,1-.5.586,2.346,2.346,0,0,0,1.324.26,1.142,1.142,0,0,1-.047.239C6.394,16.862,4,17.268,2.13,17.736A2.818,2.818,0,0,0,0,20.471V21.7H19.606V20.471a2.818,2.818,0,0,0-2.13-2.736" transform="translate(0 0)"/>
  </g>
</svg>
