<?xml version="1.0" encoding="utf-8"?>
<!-- Generated by IcoMoon.io -->
<!DOCTYPE svg PUBLIC "-//W3C//DTD SVG 1.1//EN" "http://www.w3.org/Graphics/SVG/1.1/DTD/svg11.dtd">
<svg version="1.1" xmlns="http://www.w3.org/2000/svg" xmlns:xlink="http://www.w3.org/1999/xlink" width="16" height="16" viewBox="0 0 16 16">
<path fill="#000000" d="M5 2h-2c-0.55 0-1 0.45-1 1v2c0 0.55 0.45 1 1 1h2c0.55 0 1-0.45 1-1v-2c0-0.55-0.45-1-1-1z"></path>
<path fill="#000000" d="M11 6h2c0.55 0 1-0.45 1-1v-2c0-0.55-0.45-1-1-1h-2c-0.55 0-1 0.45-1 1v2c0 0.55 0.45 1 1 1zM11 3h2v2h-2v-2z"></path>
<path fill="#000000" d="M5 10h-2c-0.55 0-1 0.45-1 1v2c0 0.55 0.45 1 1 1h2c0.55 0 1-0.45 1-1v-2c0-0.55-0.45-1-1-1zM5 13h-2v-2h2v2z"></path>
<path fill="#000000" d="M13 10h-2c-0.55 0-1 0.45-1 1v2c0 0.55 0.45 1 1 1h2c0.55 0 1-0.45 1-1v-2c0-0.55-0.45-1-1-1z"></path>
<path fill="#000000" d="M14 8h-1c-1.336 0-2.591-0.52-3.536-1.464s-1.464-2.2-1.464-3.536v-1c0-1.1-0.9-2-2-2h-4c-1.1 0-2 0.9-2 2v4c0 1.1 0.9 2 2 2h1c1.336 0 2.591 0.52 3.536 1.464s1.464 2.2 1.464 3.536v1c0 1.1 0.9 2 2 2h4c1.1 0 2-0.9 2-2v-4c0-1.1-0.9-2-2-2zM15 14c0 0.265-0.105 0.515-0.295 0.705s-0.44 0.295-0.705 0.295h-4c-0.265 0-0.515-0.105-0.705-0.295s-0.295-0.44-0.295-0.705v-1c0-3.314-2.686-6-6-6h-1c-0.265 0-0.515-0.105-0.705-0.295s-0.295-0.441-0.295-0.705v-4c0-0.265 0.105-0.515 0.295-0.705s0.44-0.295 0.705-0.295h4c0.265 0 0.515 0.105 0.705 0.295s0.295 0.44 0.295 0.705v1c0 3.314 2.686 6 6 6h1c0.265 0 0.515 0.105 0.705 0.295s0.295 0.44 0.295 0.705v4z"></path>
</svg>
