<?xml version="1.0" encoding="utf-8"?>
<!-- Copyright 2020 by Northwoods Software -->
<!DOCTYPE svg PUBLIC "-//W3C//DTD SVG 1.1//EN" "http://www.w3.org/Graphics/SVG/1.1/DTD/svg11.dtd">
<svg version="1.1" xmlns="http://www.w3.org/2000/svg" xmlns:xlink="http://www.w3.org/1999/xlink" width="16" height="16" viewBox="0 0 16 16">
<!-- <path fill="#000000" d="M0 0 h1 v2 h4 L9 7 h4 v-1 l2 2 -2 2 v-1 h-4 L5 13 h-4 v2 h-1 v-5 h1 v2 h4 L7.5 7.5 5 3 h-4 v1 h-1 z"></path> -->
<path fill="#000000" d="M0 0 h2 v5 h-2 z M0 10 h2 v5 h-2 z M13 3 h2 v9 h-2 z M2 1.5 h2.5 L8 6.5 h3 v-1.5 l2 2.5 -2 2.5 v-1.5 h-3 L4.5 13.5 h-2.5 v-2 h2 L6.5 7.5 4 3.5 h-2 z"></path>
</svg>
