<svg xmlns="http://www.w3.org/2000/svg" xmlns:xlink="http://www.w3.org/1999/xlink" width="28.417" height="23.352" viewBox="0 0 28.417 23.352">
  <defs>
    <clipPath id="clip-path">
      <rect id="Rectangle_3947" data-name="Rectangle 3947" width="28.417" height="23.352" fill="none"/>
    </clipPath>
  </defs>
  <g id="Group_667" data-name="Group 667" transform="translate(0 0)">
    <g id="Group_664" data-name="Group 664" transform="translate(0 0)" clip-path="url(#clip-path)">
      <path id="Path_40" data-name="Path 40" d="M33.384,74.371a87.755,87.755,0,0,0-9.851-.6,87.778,87.778,0,0,0-9.851.6.569.569,0,1,0,.155,1.127,86.535,86.535,0,0,1,9.7-.593,86.542,86.542,0,0,1,9.7.593.6.6,0,0,0,.078.006.569.569,0,0,0,.076-1.132" transform="translate(-9.325 -52.152)"/>
      <path id="Path_41" data-name="Path 41" d="M29.23,42.637a.733.733,0,0,0-.292-.16,1.824,1.824,0,0,1-.087.933s-.015-.467-.277-.627a2.183,2.183,0,0,1-.452-.379,1.772,1.772,0,0,0-.058.875,1.8,1.8,0,0,1-.175,1.036,1.62,1.62,0,0,0-.817-1.226v.438a.989.989,0,0,0-.671,0,.665.665,0,0,1-.67-.132.746.746,0,0,0,.832.8c-.6.365-.117.963-.117.963-.058-.161.146-.846.642-.452s-.19,1.779-.977,1.6c-.414-.092-.595-.588-.672-1.036a.617.617,0,1,0-.369-.084,1.059,1.059,0,0,1-1.336.478,1.016,1.016,0,0,1-.16-1.809c.452-.059.656.51.656.51.423-.321.219-.554.219-.554a.96.96,0,0,0,.306.043c.19,0,.54-.029.54-.029a1.963,1.963,0,0,0-.306-.569,2,2,0,0,0-.525-.54c.132-.029.364-.306.364-.306-.277-.015-.627-.19-.948-.029a3.6,3.6,0,0,0-.671.481c.073-.511.482-.511.628-.744a1.36,1.36,0,0,0,.175-.51,1,1,0,0,0-.453.058c.336-.627-.379-1.138-.379-1.138a.89.89,0,0,0-.627.962,1.98,1.98,0,0,0-.219-.189,1.95,1.95,0,0,1-.2-.176.917.917,0,0,0,.073.773,1.234,1.234,0,0,1,.175.758c-.613-.977-1.239-1.036-1.239-1.036a1.266,1.266,0,0,0,.219.614.937.937,0,0,0-.817.175.884.884,0,0,1-.671.19,1.15,1.15,0,0,0,.9.481c-.584.263-.058,1.036-.058,1.036s-.146-.774.6-.744,1.094,2.013-.247,2.013c-.717,0-1.054-.6-1.214-1.157a.615.615,0,1,0-.382-.023,1.193,1.193,0,0,1-1.307.77c-1.429-.189-.788-2.2-.423-2.144s.437.686.437.686c.54-.277.117-.8.117-.8a.878.878,0,0,0,1.312-.146s-.262.073-.481-.263a.728.728,0,0,0-.6-.321c.481-.116.321-.685.321-.685a2.373,2.373,0,0,0-1.94.992,1.35,1.35,0,0,1,.525-.92c.438-.233.2-.933.2-.933a.78.78,0,0,0-.54.262c.088-.568-.57-.991-.57-.991s-.658.423-.57.991a.777.777,0,0,0-.539-.262s-.233.7.2.933a1.349,1.349,0,0,1,.525.92,2.374,2.374,0,0,0-1.94-.992s-.16.569.321.685a.727.727,0,0,0-.6.321c-.219.336-.481.263-.481.263a.879.879,0,0,0,1.313.146s-.423.526.116.8c0,0,.073-.627.438-.686s1.006,1.954-.423,2.144a1.194,1.194,0,0,1-1.307-.77.614.614,0,1,0-.382.023c-.16.558-.5,1.157-1.214,1.157-1.342,0-.992-1.984-.248-2.013s.6.744.6.744.525-.774-.059-1.036a1.149,1.149,0,0,0,.9-.481.884.884,0,0,1-.671-.19.937.937,0,0,0-.817-.175,1.269,1.269,0,0,0,.219-.614s-.627.059-1.24,1.036a1.234,1.234,0,0,1,.175-.758.914.914,0,0,0,.073-.773,1.931,1.931,0,0,1-.2.176,2.078,2.078,0,0,0-.219.189.889.889,0,0,0-.627-.962s-.715.51-.379,1.138a.994.994,0,0,0-.452-.058,1.361,1.361,0,0,0,.175.51c.146.233.554.233.627.744a3.611,3.611,0,0,0-.671-.481c-.321-.161-.671.014-.948.029,0,0,.234.277.365.306a2,2,0,0,0-.525.54,1.959,1.959,0,0,0-.307.569s.35.029.54.029a.964.964,0,0,0,.307-.043s-.2.233.219.554c0,0,.2-.569.656-.51a1.016,1.016,0,0,1-.16,1.809,1.059,1.059,0,0,1-1.336-.478.613.613,0,1,0-.369.084c-.078.449-.258.944-.672,1.036-.788.175-1.473-1.211-.977-1.6s.7.291.642.452c0,0,.481-.6-.117-.963a.746.746,0,0,0,.831-.8.667.667,0,0,1-.671.132.989.989,0,0,0-.671,0v-.438a1.619,1.619,0,0,0-.817,1.226,1.8,1.8,0,0,1-.175-1.036,1.767,1.767,0,0,0-.058-.875,2.183,2.183,0,0,1-.452.379c-.263.16-.277.627-.277.627a1.826,1.826,0,0,1-.087-.933.735.735,0,0,0-.292.16c-.087.1-.525-.481-.525-.481a1.814,1.814,0,0,0,.321,1.313c.171.221.461.655.776,1.142a.612.612,0,0,1,.753.071,1.352,1.352,0,0,1,1.17-.762,1.468,1.468,0,0,0-1.045.93.612.612,0,0,1-.219.8c.287.457.54.864.68,1.088A40.408,40.408,0,0,1,16.523,45.6a40.412,40.412,0,0,1,10.8,1.138c.141-.224.394-.631.68-1.088a.613.613,0,0,1-.286-.519.606.606,0,0,1,.067-.278,1.47,1.47,0,0,0-1.045-.93,1.352,1.352,0,0,1,1.17.762.612.612,0,0,1,.753-.071c.315-.487.6-.922.776-1.142a1.818,1.818,0,0,0,.321-1.313s-.438.584-.525.481M10.338,44.054a.614.614,0,0,1-.615-.614A.626.626,0,0,1,9.74,43.3a1.724,1.724,0,0,0-1.415.227,1.728,1.728,0,0,1,1.482-.395.611.611,0,0,1,.3-.261c-.075-.68-.146-1.6-.146-1.6.115.414.238,1.111.311,1.562.022,0,.045,0,.068,0a.61.61,0,0,1,.423.169,2.031,2.031,0,0,1,1.357-.27,2.331,2.331,0,0,0-1.264.381.614.614,0,0,1-.516.948m6.186-.437a.614.614,0,0,1-.529-.925,2.2,2.2,0,0,0-1.207-.273c-.248.059-.715.2-.715.2a2.484,2.484,0,0,1,1.225-.394,1.366,1.366,0,0,1,.812.321.611.611,0,0,1,.349-.159,4.969,4.969,0,0,0-.008-.847,3.454,3.454,0,0,1,.074-1.269,3.438,3.438,0,0,1,.074,1.269,5.02,5.02,0,0,0-.008.847.61.61,0,0,1,.348.159,1.366,1.366,0,0,1,.812-.321,2.484,2.484,0,0,1,1.226.394s-.467-.145-.715-.2a2.2,2.2,0,0,0-1.207.273.614.614,0,0,1-.53.925m5.572-.177a.611.611,0,0,1,.1-.334,2.334,2.334,0,0,0-1.264-.381,2.032,2.032,0,0,1,1.357.27.608.608,0,0,1,.423-.169c.022,0,.045,0,.068,0,.073-.452.195-1.148.311-1.562,0,0-.072.925-.146,1.6a.614.614,0,0,1,.3.261,1.727,1.727,0,0,1,1.481.395,1.724,1.724,0,0,0-1.415-.227.614.614,0,1,1-1.212.139" transform="translate(-2.315 -28.081)"/>
      <path id="Path_42" data-name="Path 42" d="M45.347,66.676H43.291a.7.7,0,1,0,0,1.4h2.056a.7.7,0,1,0,0-1.4" transform="translate(-30.111 -47.139)"/>
      <path id="Path_43" data-name="Path 43" d="M12.046,61.714l.933,3.092a83.363,83.363,0,0,1,9.745-.627,83.345,83.345,0,0,1,9.745.627l.933-3.092s-3.284-1.138-10.678-1.138-10.678,1.138-10.678,1.138M23.824,64h-2.2a.941.941,0,0,1,0-1.882h2.2a.941.941,0,1,1,0,1.882m8.891-1.277-.084.25a16.964,16.964,0,0,0-2.4-.515,48.625,48.625,0,0,0-7.508-.514,48.624,48.624,0,0,0-7.508.514,16.937,16.937,0,0,0-2.4.515l-.083-.25a16.95,16.95,0,0,1,2.431-.523,48.826,48.826,0,0,1,7.56-.519,48.831,48.831,0,0,1,7.56.519,17.04,17.04,0,0,1,2.431.523" transform="translate(-8.516 -42.826)"/>
      <path id="Path_44" data-name="Path 44" d="M47.225,36.142a.524.524,0,1,0-.524-.524.523.523,0,0,0,.524.524" transform="translate(-33.017 -24.811)"/>
      <path id="Path_45" data-name="Path 45" d="M47.225,32.306a.524.524,0,1,0-.524-.524.523.523,0,0,0,.524.524" transform="translate(-33.017 -22.099)"/>
      <path id="Path_46" data-name="Path 46" d="M47.225,28.324A.524.524,0,1,0,46.7,27.8a.524.524,0,0,0,.524.524" transform="translate(-33.017 -19.284)"/>
      <path id="Path_47" data-name="Path 47" d="M47.225,24.193a.524.524,0,1,0-.524-.524.523.523,0,0,0,.524.524" transform="translate(-33.017 -16.363)"/>
      <path id="Path_48" data-name="Path 48" d="M47.748,19.636a.524.524,0,1,0-.524.524.524.524,0,0,0,.524-.524" transform="translate(-33.016 -13.512)"/>
      <path id="Path_49" data-name="Path 49" d="M10.462,42.545a2.789,2.789,0,0,0-3.194.934,4.992,4.992,0,0,1,.014.772,1.2,1.2,0,0,0,.569-.5A1.73,1.73,0,0,1,8.129,45a1.534,1.534,0,0,1,.992-.467l.015.511a.956.956,0,0,0,.583.059,1.548,1.548,0,0,0,.656-.278l.132.248s.2-.248.335-.394c0,0-.248-.35-.379-.554a4.143,4.143,0,0,1,.671-.146,5.27,5.27,0,0,1-.671-1.43" transform="translate(-5.138 -29.959)"/>
      <path id="Path_50" data-name="Path 50" d="M33.32,36.989s-.758-.686-.6-2.8a4.535,4.535,0,0,0-2.786.073A2.728,2.728,0,0,0,29.688,36a5.151,5.151,0,0,1,.219,1.459,1.568,1.568,0,0,1,.919-.219,1.094,1.094,0,0,1-.044.671,1.008,1.008,0,0,1,.613.16.572.572,0,0,0,.715.029,3.1,3.1,0,0,1,.452-.292,1.6,1.6,0,0,1-.044-.875,3.233,3.233,0,0,1,.8.058" transform="translate(-20.951 -24.038)"/>
      <path id="Path_51" data-name="Path 51" d="M20.351,40.8a.54.54,0,1,0-.54-.539.54.54,0,0,0,.54.539" transform="translate(-14.006 -28.081)"/>
      <path id="Path_52" data-name="Path 52" d="M21.836,33.887a.54.54,0,1,0-.54.54.54.54,0,0,0,.54-.54" transform="translate(-14.675 -23.576)"/>
      <path id="Path_53" data-name="Path 53" d="M24.084,29.05a.54.54,0,1,0-.54-.54.539.539,0,0,0,.54.54" transform="translate(-16.645 -19.775)"/>
      <path id="Path_54" data-name="Path 54" d="M28.564,24.77a.54.54,0,1,0-.539-.54.539.539,0,0,0,.539.54" transform="translate(-19.813 -16.749)"/>
      <path id="Path_55" data-name="Path 55" d="M33.791,20.637a.54.54,0,1,0-.54-.539.54.54,0,0,0,.54.539" transform="translate(-23.508 -13.827)"/>
      <path id="Path_56" data-name="Path 56" d="M.992,27.737a1.5,1.5,0,0,0,.51.656l.35-.16A4.679,4.679,0,0,1,4.4,22.979,12.476,12.476,0,0,1,7.986,21.8a.883.883,0,0,1-.008-.1.773.773,0,0,1,.37-.659c-.171.023-.349.05-.532.081a.541.541,0,1,0-.343.06,14.558,14.558,0,0,0-1.441.349.54.54,0,1,0-.386.122,10.186,10.186,0,0,0-1.279.522.539.539,0,1,0-.357.136A.552.552,0,0,0,4.13,22.3a7.38,7.38,0,0,0-.79.481,5.389,5.389,0,0,0-.557.448.543.543,0,1,0-.144.136A5.316,5.316,0,0,0,1.7,24.6a.521.521,0,0,0,.032-.179.541.541,0,1,0-.108.322,5.988,5.988,0,0,0-.551,1.676.539.539,0,1,0-.04.252,5.248,5.248,0,0,0-.046,1.061" transform="translate(0 -14.216)"/>
      <path id="Path_57" data-name="Path 57" d="M39.167,17.452a.54.54,0,1,0-.539-.539.54.54,0,0,0,.539.539" transform="translate(-27.309 -11.575)"/>
      <path id="Path_58" data-name="Path 58" d="M77.189,42.545a5.266,5.266,0,0,1-.671,1.43,4.142,4.142,0,0,1,.671.146c-.131.2-.379.554-.379.554.131.145.336.394.336.394l.131-.248a1.55,1.55,0,0,0,.656.278.956.956,0,0,0,.583-.059l.015-.511a1.535,1.535,0,0,1,.992.467,1.728,1.728,0,0,1,.277-1.239,1.2,1.2,0,0,0,.569.5,5.057,5.057,0,0,1,.014-.772,2.789,2.789,0,0,0-3.194-.934" transform="translate(-54.096 -29.959)"/>
      <path id="Path_59" data-name="Path 59" d="M58.15,34.263a4.533,4.533,0,0,0-2.786-.073c.161,2.115-.6,2.8-.6,2.8a3.242,3.242,0,0,1,.8-.058,1.608,1.608,0,0,1-.044.875,3.135,3.135,0,0,1,.452.292.571.571,0,0,0,.715-.029,1.01,1.01,0,0,1,.613-.16,1.1,1.1,0,0,1-.044-.671,1.571,1.571,0,0,1,.919.219A5.133,5.133,0,0,1,58.4,36a2.73,2.73,0,0,0-.248-1.735" transform="translate(-38.718 -24.039)"/>
      <path id="Path_60" data-name="Path 60" d="M73.481,40.259a.54.54,0,1,0,.54-.54.54.54,0,0,0-.54.54" transform="translate(-51.949 -28.081)"/>
      <path id="Path_61" data-name="Path 61" d="M73.076,33.349a.54.54,0,1,0,.539.539.539.539,0,0,0-.539-.539" transform="translate(-51.281 -23.577)"/>
      <path id="Path_62" data-name="Path 62" d="M70.288,29.05a.54.54,0,1,0-.54-.54.539.539,0,0,0,.54.54" transform="translate(-49.31 -19.775)"/>
      <path id="Path_63" data-name="Path 63" d="M65.268,24.23a.54.54,0,1,0,.539-.539.539.539,0,0,0-.539.539" transform="translate(-46.143 -16.749)"/>
      <path id="Path_64" data-name="Path 64" d="M60.582,20.637a.54.54,0,1,0-.54-.539.539.539,0,0,0,.54.539" transform="translate(-42.448 -13.827)"/>
      <path id="Path_65" data-name="Path 65" d="M76.294,25.928a.539.539,0,0,0-.538.5,5.979,5.979,0,0,0-.551-1.676.541.541,0,1,0-.076-.143,5.307,5.307,0,0,0-.935-1.243.535.535,0,0,0,.291.086.54.54,0,1,0-.54-.54.532.532,0,0,0,.1.318,5.494,5.494,0,0,0-.557-.448A7.457,7.457,0,0,0,72.7,22.3a.532.532,0,0,0,.119.013.541.541,0,1,0-.357-.136,10.145,10.145,0,0,0-1.278-.522.539.539,0,1,0-.386-.122,14.437,14.437,0,0,0-1.441-.349.538.538,0,1,0-.343-.06c-.183-.031-.362-.058-.532-.081a.771.771,0,0,1,.37.659.73.73,0,0,1-.008.1,12.473,12.473,0,0,1,3.589,1.177,4.679,4.679,0,0,1,2.545,5.253l.35.16a1.5,1.5,0,0,0,.51-.656,5.186,5.186,0,0,0-.046-1.061.54.54,0,1,0,.5-.748" transform="translate(-48.417 -14.216)"/>
      <path id="Path_66" data-name="Path 66" d="M55.2,17.452a.54.54,0,1,0-.539-.539.539.539,0,0,0,.539.539" transform="translate(-38.647 -11.575)"/>
      <path id="Path_67" data-name="Path 67" d="M22.938,6.723l-.27.024a.773.773,0,1,1-1,.9c-.151.107-.3.215-.438.326a.773.773,0,1,1-.89.821,3.374,3.374,0,0,0-.69,1.088.773.773,0,1,1-.13.429V10.3a4.863,4.863,0,0,0-.177,1.5.773.773,0,1,1,.169.967,2.87,2.87,0,0,0,.621,1.121,2.417,2.417,0,0,1-.058-.627l.379-.015a1.035,1.035,0,0,1,.248-.685,3.061,3.061,0,0,1,.452-.466,1.425,1.425,0,0,1,.9.758l.117-.1c-.292-1.546-.343-2.64,1.852-4.566a24.589,24.589,0,0,1,2.96-2.25A21.5,21.5,0,0,0,25.9,9.7a4.785,4.785,0,0,0,.525,3.253,1.181,1.181,0,0,1,.233-.875.912.912,0,0,1,.467.073,1.152,1.152,0,0,1,.544-.647.727.727,0,0,1-.217-1.279.725.725,0,0,1-.01-1.16.728.728,0,0,1,.04-1.183.726.726,0,0,1-.02-1.2.771.771,0,0,1-.106-.094l-.013-.014-.008-.009a.757.757,0,1,1,1.1,0l-.007.008-.015.015a.744.744,0,0,1-.1.094.727.727,0,0,1-.02,1.2.728.728,0,0,1,.04,1.183.726.726,0,0,1-.011,1.16A.727.727,0,0,1,28.1,11.5a1.153,1.153,0,0,1,.543.647.911.911,0,0,1,.466-.073,1.18,1.18,0,0,1,.234.875A4.783,4.783,0,0,0,29.868,9.7a21.426,21.426,0,0,0-1.094-3.767,24.608,24.608,0,0,1,2.961,2.25c2.2,1.926,2.144,3.02,1.852,4.566l.116.1a1.425,1.425,0,0,1,.9-.758,3.088,3.088,0,0,1,.452.466,1.031,1.031,0,0,1,.248.685l.379.015a2.423,2.423,0,0,1-.059.627,2.865,2.865,0,0,0,.62-1.121.773.773,0,1,1,.169-.967,4.826,4.826,0,0,0-.177-1.5v.009a.774.774,0,1,1-.13-.429,3.379,3.379,0,0,0-.69-1.088.773.773,0,1,1-.89-.821c-.14-.11-.287-.219-.437-.326a.773.773,0,1,1-1-.9l-.27-.024a.54.54,0,0,0-.174-1.05.545.545,0,0,0-.277.076.772.772,0,1,1-1.281.219l-.28-.126a.772.772,0,0,1-1.357-.505c0-.019,0-.037,0-.056-.213-.082-.413-.156-.6-.22a1.819,1.819,0,0,0-.7-3.331.888.888,0,1,0-.563,0,1.82,1.82,0,0,0-.7,3.331c-.183.065-.384.138-.6.22,0,.018,0,.037,0,.056a.772.772,0,0,1-1.357.505l-.279.126a.773.773,0,1,1-1.282-.219.539.539,0,1,0-.45.974m4.228-3.44V2.54l.665.318-.24-.8h.59l-.24.8.666-.318v.744L27.942,3l.146.562a.927.927,0,0,1,.756.749,1.391,1.391,0,0,1-.971.539,1.313,1.313,0,0,1-.944-.525.926.926,0,0,1,.758-.763L27.832,3Z" transform="translate(-13.675 0)"/>
    </g>
  </g>
</svg>
