<svg id="Group_673" data-name="Group 673" xmlns="http://www.w3.org/2000/svg" xmlns:xlink="http://www.w3.org/1999/xlink" width="19.606" height="20.35" viewBox="0 0 19.606 20.35">
  <defs>
    <clipPath id="clip-path">
      <rect id="Rectangle_3950" data-name="Rectangle 3950" width="19.606" height="20.35"/>
    </clipPath>
  </defs>
  <g id="Group_673-2" data-name="Group 673" clip-path="url(#clip-path)">
    <path id="Path_81" data-name="Path 81" d="M17.077,15.638c-1.722-.643-3.657-1.364-4.389-2.389a.831.831,0,0,1-.154-.484v-1.25a.271.271,0,0,1,.052-.158,5.311,5.311,0,0,0,.8-1.816c.385.029.9-1.277.875-2.584-.019-.559-.3-.634-.49-.514a9.544,9.544,0,0,0,.278-3.267,2.165,2.165,0,0,0-.395-1.128C12.293.133,8.281-1.136,6.544,1.49c-1.229.578-1.5,2.7-.724,4.946-.186-.109-.46-.025-.478.521-.027,1.307.49,2.613.875,2.584a5.31,5.31,0,0,0,.8,1.816.271.271,0,0,1,.052.158c0,.241,0,.918,0,1.25a.83.83,0,0,1-.154.484c-.732,1.024-2.667,1.746-4.389,2.389A3.889,3.889,0,0,0,0,19.282v1.069H19.606V19.282a3.89,3.89,0,0,0-2.529-3.644" transform="translate(0 0)"/>
  </g>
</svg>
