<?xml version="1.0" encoding="UTF-8"?>
<svg xmlns="http://www.w3.org/2000/svg" xmlns:xlink="http://www.w3.org/1999/xlink" viewBox="0 0 16 16" version="1.1" width="18px" height="18px">
<g id="surface1">
<path style=" " d="M 2.5 2 C 1.675781 2 1 2.675781 1 3.5 L 1 12.5 C 1 13.324219 1.675781 14 2.5 14 L 13.5 14 C 14.324219 14 15 13.324219 15 12.5 L 15 5.5 C 15 4.675781 14.324219 4 13.5 4 L 6.796875 4 L 6.144531 2.789063 C 5.882813 2.300781 5.375 2 4.824219 2 Z M 2.5 3 L 4.824219 3 C 5.007813 3 5.175781 3.101563 5.265625 3.261719 L 6.203125 5 L 13.5 5 C 13.78125 5 14 5.21875 14 5.5 L 14 7 L 5.21875 7 C 4.578125 7 4 7.414063 3.796875 8.023438 L 2.179688 12.878906 C 2.070313 12.789063 2 12.65625 2 12.5 L 2 3.5 C 2 3.21875 2.21875 3 2.5 3 Z M 5.21875 8 L 14 8 L 14 12.5 C 14 12.78125 13.78125 13 13.5 13 L 3.195313 13 L 4.746094 8.34375 C 4.816406 8.136719 5.003906 8 5.21875 8 Z "/>
</g>
</svg>
