<svg xmlns="http://www.w3.org/2000/svg" xmlns:xlink="http://www.w3.org/1999/xlink" width="32.423" height="13.713" viewBox="0 0 32.423 13.713">
  <defs>
    <clipPath id="clip-path">
      <rect id="Rectangle_3948" data-name="Rectangle 3948" width="32.423" height="13.713" fill="none"/>
    </clipPath>
  </defs>
  <g id="Group_668" data-name="Group 668" transform="translate(0 0)">
    <g id="Group_668-2" data-name="Group 668" transform="translate(0 0)" clip-path="url(#clip-path)">
      <path id="Path_68" data-name="Path 68" d="M2.8,8.142a2.494,2.494,0,0,1,.6-.864C3.28,6.864,3,6.779,2.9,6.21a.889.889,0,0,0-.635.862A1.617,1.617,0,0,0,.927,6.8,1.273,1.273,0,0,0,0,7.8s.813-.634,1.187-.081a1.039,1.039,0,0,0,.928.488.964.964,0,0,1,.683-.07" transform="translate(0 -3.006)"/>
      <path id="Path_69" data-name="Path 69" d="M26.381,6.825a1.639,1.639,0,0,0-.31.521,2.939,2.939,0,0,0-.081.406,3.278,3.278,0,0,0,2.171-2.294,4.241,4.241,0,0,1-1.26-.553,2.393,2.393,0,0,0-1.448-.374.784.784,0,0,1,.2.456.743.743,0,0,0,.309.489,1,1,0,0,0-.749.471,1.385,1.385,0,0,1-.52.586,2.045,2.045,0,0,1,.976.244.725.725,0,0,0,.716.049m1.025-.993c.472-.022.521-.227.521-.227a.892.892,0,0,1-1.058.552,3.005,3.005,0,0,0-1.041.082,3.588,3.588,0,0,1,1.578-.407" transform="translate(-11.95 -2.189)"/>
      <path id="Path_70" data-name="Path 70" d="M4.255,10.575a1.192,1.192,0,0,0,1.172,1.318,1.382,1.382,0,0,0-.294-1.058.963.963,0,0,0-.878-.26" transform="translate(-2.059 -5.108)"/>
      <path id="Path_71" data-name="Path 71" d="M6.551,10.288a2,2,0,0,0,.779,0,2.254,2.254,0,0,1,.96.081,1.028,1.028,0,0,0-.1-.569.885.885,0,0,0-.569-.44s.667-.049.748-.5A1.023,1.023,0,0,1,8.7,8.222a3.68,3.68,0,0,1-.749-.017,1.292,1.292,0,0,0-.927.408c.521-.522-.114-1.172-.114-1.172a1,1,0,0,1-.439.683,1.617,1.617,0,0,0-.568.73,2.064,2.064,0,0,1,.652,1.434" transform="translate(-2.855 -3.602)"/>
      <path id="Path_72" data-name="Path 72" d="M33.591,7.753a2.956,2.956,0,0,0-.081-.406,1.639,1.639,0,0,0-.31-.521.726.726,0,0,0,.716-.049,2.043,2.043,0,0,1,.976-.244,1.392,1.392,0,0,1-.52-.587,1,1,0,0,0-.749-.471.741.741,0,0,0,.309-.488.78.78,0,0,1,.2-.456,2.393,2.393,0,0,0-1.448.374,4.249,4.249,0,0,1-1.259.553,3.273,3.273,0,0,0,2.171,2.293M31.655,5.606s.049.2.52.227a3.583,3.583,0,0,1,1.578.408,3,3,0,0,0-1.041-.082.891.891,0,0,1-1.057-.552" transform="translate(-15.208 -2.19)"/>
      <path id="Path_73" data-name="Path 73" d="M29.6,3.01A2.562,2.562,0,0,0,31.54,1.073a.936.936,0,0,1-.586.114.639.639,0,0,0-.553.2.848.848,0,0,0-.277-.847A1.392,1.392,0,0,1,29.6,0a1.4,1.4,0,0,1-.528.537.848.848,0,0,0-.277.847.639.639,0,0,0-.553-.2.938.938,0,0,1-.586-.114A2.562,2.562,0,0,0,29.6,3.01M29.426,1.4A1.844,1.844,0,0,0,29.6.852a1.821,1.821,0,0,0,.17.546,1.722,1.722,0,0,1-.17,1.2,1.718,1.718,0,0,1-.17-1.2" transform="translate(-13.385 0)"/>
      <path id="Path_74" data-name="Path 74" d="M56.594,10.835a1.382,1.382,0,0,0-.293,1.058,1.191,1.191,0,0,0,1.171-1.318.964.964,0,0,0-.879.26" transform="translate(-27.247 -5.108)"/>
      <path id="Path_75" data-name="Path 75" d="M51.844,8.857c.081.456.748.5.748.5a.882.882,0,0,0-.569.439,1.034,1.034,0,0,0-.1.569,2.255,2.255,0,0,1,.96-.082,1.988,1.988,0,0,0,.779,0,2.062,2.062,0,0,1,.652-1.434,1.62,1.62,0,0,0-.568-.73,1,1,0,0,1-.439-.683s-.635.651-.114,1.172a1.293,1.293,0,0,0-.927-.408,3.715,3.715,0,0,1-.749.017,1.015,1.015,0,0,1,.326.634" transform="translate(-24.936 -3.602)"/>
      <path id="Path_76" data-name="Path 76" d="M32.2,8.736s-.005-.027-.01-.072a2.335,2.335,0,0,1-.853.023,3.193,3.193,0,0,0-.815.006,2.628,2.628,0,0,1-2,.124A2.823,2.823,0,0,1,26.4,6.575a1.138,1.138,0,0,0,.3-2.169.423.423,0,1,0-.247-.076,1.208,1.208,0,0,0-.213-.021,1.138,1.138,0,0,0-.765,1.981,3.186,3.186,0,0,1-2.75,1.436c-2.717-.227-3.065-2.163-3.065-2.163S19.312,7.5,16.6,7.726a3.186,3.186,0,0,1-2.75-1.436,1.138,1.138,0,0,0-.765-1.981,1.2,1.2,0,0,0-.213.021.423.423,0,1,0-.247.076,1.138,1.138,0,0,0,.3,2.169A2.823,2.823,0,0,1,10.8,8.816a2.628,2.628,0,0,1-2-.124,3.193,3.193,0,0,0-.815-.006,2.333,2.333,0,0,1-.853-.023c0,.045-.009.072-.009.072a4.238,4.238,0,0,0,3.249.93q-1.06.261-2.1.578a.463.463,0,1,0,.27.886A38.641,38.641,0,0,1,19.661,9.443,38.64,38.64,0,0,1,30.775,11.13a.43.43,0,0,0,.136.021.464.464,0,0,0,.135-.907q-1.039-.317-2.1-.578a4.24,4.24,0,0,0,3.25-.93m-12.535-.22a39.068,39.068,0,0,0-8.644,1A3.976,3.976,0,0,0,13.52,7.3a4.653,4.653,0,0,0,3.222,1.238A4.476,4.476,0,0,0,19.661,7.06,4.473,4.473,0,0,0,22.58,8.541,4.653,4.653,0,0,0,25.8,7.3a3.976,3.976,0,0,0,2.5,2.211,39.067,39.067,0,0,0-8.644-1" transform="translate(-3.449 -1.724)"/>
      <path id="Path_77" data-name="Path 77" d="M58.723,6.8a1.616,1.616,0,0,0-1.334.276.888.888,0,0,0-.634-.862c-.108.569-.385.654-.5,1.069a2.49,2.49,0,0,1,.6.864.965.965,0,0,1,.683.07,1.039,1.039,0,0,0,.928-.488c.374-.554,1.187.08,1.187.08A1.275,1.275,0,0,0,58.723,6.8" transform="translate(-27.228 -3.006)"/>
      <path id="Path_78" data-name="Path 78" d="M31.816,23.2a39.52,39.52,0,0,0-11.385-1.729A39.515,39.515,0,0,0,9.046,23.2a.464.464,0,0,0,.271.887A38.534,38.534,0,0,1,20.431,22.4a38.536,38.536,0,0,1,11.114,1.689.492.492,0,0,0,.135.02.464.464,0,0,0,.136-.907" transform="translate(-4.22 -10.391)"/>
      <path id="Path_79" data-name="Path 79" d="M9.617,18.812v1.2a38.945,38.945,0,0,1,11.25-1.707,38.947,38.947,0,0,1,11.249,1.707v-1.2l-.326.244-1.74-1.269,1.789-.2.277.385v-.7a38.945,38.945,0,0,0-11.249-1.708,38.943,38.943,0,0,0-11.25,1.708v.7l.277-.385,1.79.2L9.943,19.055Zm17.065-2.23,1.838,1.026L26.633,18l-1.822-1.009Zm-5.815-.325,1.846.667-1.846.716-1.847-.716Zm-5.815.325,1.87.407L15.1,18l-1.887-.391Z" transform="translate(-4.655 -7.538)"/>
    </g>
  </g>
</svg>
