<?xml version="1.0" encoding="utf-8"?>
<!-- Generated by IcoMoon.io -->
<!DOCTYPE svg PUBLIC "-//W3C//DTD SVG 1.1//EN" "http://www.w3.org/Graphics/SVG/1.1/DTD/svg11.dtd">
<svg version="1.1" xmlns="http://www.w3.org/2000/svg" xmlns:xlink="http://www.w3.org/1999/xlink" width="16" height="16" viewBox="0 0 16 16">
<path fill="#000000" d="M0 1v14h16v-14h-16zM6 10v-3h4v3h-4zM10 11v3h-4v-3h4zM10 3v3h-4v-3h4zM5 3v3h-4v-3h4zM1 7h4v3h-4v-3zM11 7h4v3h-4v-3zM11 6v-3h4v3h-4zM1 11h4v3h-4v-3zM11 14v-3h4v3h-4z"></path>
</svg>
